<svg width="26" height="26" viewBox="0 0 26 26" fill="none" xmlns="http://www.w3.org/2000/svg">
<path d="M25.7083 10.2546H23.9046C24.1272 11.0776 24.258 12.0226 24.2621 12.9984V13.0008C24.2621 13.0041 24.2621 13.0089 24.2621 13.013C24.2621 15.7316 23.2992 18.2244 21.6954 20.1703L21.7108 20.1508C20.9552 18.3276 19.7234 16.8293 18.1691 15.769L18.1358 15.7471L17.5996 15.3896L17.1121 15.7958C15.9957 16.6912 14.5616 17.2331 13.0008 17.2331C11.44 17.2331 10.0059 16.6912 8.87656 15.7852L8.88956 15.795L8.40206 15.3887L7.86581 15.73C6.2855 16.8204 5.05619 18.3162 4.31519 20.0687L4.29081 20.1337C2.70481 18.2081 1.74281 15.7162 1.74281 13C1.74281 6.78194 6.78275 1.74037 13 1.73875C13.9831 1.742 14.9346 1.872 15.8397 2.11413L15.7625 2.09625V0.2925C14.9338 0.111312 13.9807 0.004875 13.0033 0H13C5.81994 0 0 5.81994 0 13C0 20.1801 5.81994 26 13 26C20.1801 26 26 20.1801 26 13C25.9943 12.0242 25.8879 11.0768 25.6912 10.1628L25.7075 10.2538L25.7083 10.2546ZM5.63956 21.4996C6.16281 19.903 7.09231 18.5591 8.307 17.5459L8.32081 17.5346C9.63219 18.4348 11.2539 18.9719 13.0008 18.9719C14.7477 18.9719 16.3694 18.4348 17.7092 17.5159L17.6808 17.5346C18.9077 18.5607 19.8364 19.9038 20.345 21.4386L20.3621 21.4996C18.4056 23.2139 15.8251 24.2596 13.0008 24.2596C10.1766 24.2596 7.59606 23.2139 5.62656 21.4882L5.63956 21.4996ZM20.8496 8.49956H22.5721V5.13581H26.0008V3.39706H22.5883V0.0008125H20.8496V3.39706H17.5021V5.13581H20.8496V8.49956ZM7.52456 10.8721C7.52456 13.8962 9.97669 16.3483 13.0008 16.3483C16.0249 16.3483 18.4771 13.8962 18.4771 10.8721C18.4771 7.84794 16.0249 5.39581 13.0008 5.39581C9.97669 5.39581 7.52456 7.84794 7.52456 10.8721ZM16.7546 10.8721C16.7546 10.8769 16.7546 10.8826 16.7546 10.8883C16.7546 12.9618 15.0743 14.6421 13.0008 14.6421C10.9273 14.6421 9.24706 12.9618 9.24706 10.8883C9.24706 8.81481 10.9273 7.13456 13.0008 7.13456C15.0686 7.13456 16.7456 8.80587 16.7546 10.8713V10.8721Z" fill="#0672CB"/>
</svg>
