<svg width="22" height="24" viewBox="0 0 22 24" fill="none" xmlns="http://www.w3.org/2000/svg">
<path d="M6.28571 1.6V0H4.71429V1.6H0V24H22V1.6H17.2857V0H15.7143V1.6H6.28571ZM15.7143 3.2V4.8H17.2857V3.2H20.4286V6.4H1.57143V3.2H4.71429V4.8H6.28571V3.2H15.7143ZM1.57143 8H20.4286V22.4H1.57143V8Z" fill="#636363"/>
<path d="M10.2154 11.9999H7.85826V10.3999H10.2154V11.9999ZM7.85826 15.9999H10.2154V14.3999H7.85826V15.9999ZM14.144 15.9999H11.7868V14.3999H14.144V15.9999ZM11.7868 19.9999H14.144V18.3999H11.7868V19.9999ZM18.0725 19.9999H15.7154V18.3999H18.0725V19.9999ZM15.7154 15.9999H18.0725V14.3999H15.7154V15.9999ZM6.28683 15.9999H3.92969V14.3999H6.28683V15.9999ZM3.92969 19.9999H6.28683V18.3999H3.92969V19.9999ZM10.2154 19.9999H7.85826V18.3999H10.2154V19.9999ZM11.7868 11.9999H14.144V10.3999H11.7868V11.9999ZM18.0725 11.9999H15.7154V10.3999H18.0725V11.9999Z" fill="#636363"/>
</svg>
