<svg width="79" height="79" viewBox="0 0 79 79" fill="none" xmlns="http://www.w3.org/2000/svg">
<path d="M79 64.1875V29.625H29.625V64.1875H46.9062V74.0625H39.5V79H69.125V74.0625H61.7188V64.1875H79ZM56.7812 74.0625H51.8438V64.1875H56.7812V74.0625ZM34.5625 59.25V34.5625H74.0625V59.25H34.5625ZM20.7375 58.7562C20.7375 60.6646 19.1896 62.2125 17.2812 62.2125C15.3729 62.2125 13.825 60.6646 13.825 58.7562C13.825 56.8479 15.3729 55.3 17.2812 55.3C19.1896 55.3 20.7375 56.8479 20.7375 58.7562ZM9.875 14.8125H24.6875V19.75H9.875V14.8125ZM29.625 74.0625H4.9375V4.9375H29.625V24.6875H34.5625V0H0V79H34.5625V69.125H29.625V74.0625ZM9.875 24.6875H24.6875V29.625H9.875V24.6875Z" fill="#0E0E0E"/>
</svg>
