<svg width="24" height="24" viewBox="0 0 24 24" fill="none" xmlns="http://www.w3.org/2000/svg">
<path d="M12 15.075C14.7915 15.075 17.055 12.8115 17.055 10.02C17.055 7.2285 14.7915 4.965 12 4.965C9.2085 4.965 6.945 7.2285 6.945 10.02C6.945 10.0252 6.945 10.0305 6.945 10.0357C6.95325 12.8212 9.21375 15.075 12 15.075ZM12 6.585C13.899 6.59325 15.435 8.1345 15.435 10.035C15.435 11.94 13.8907 13.485 11.985 13.485C10.0792 13.485 8.535 11.9408 8.535 10.035C8.54325 8.12775 10.0912 6.585 12 6.585ZM12 0C5.37225 0 0 5.37225 0 12C0 18.6278 5.37225 24 12 24C18.6278 24 24 18.6278 24 12C24 5.37225 18.6278 0 12 0ZM12 1.605C17.7397 1.61775 22.3875 6.27375 22.3875 12.015C22.3875 14.5215 21.5018 16.8217 20.0257 18.618L20.04 18.6C19.3425 16.917 18.2055 15.534 16.7708 14.5553L16.74 14.535L16.245 14.205L15.795 14.58C14.7645 15.4065 13.4408 15.9067 12 15.9067C10.5592 15.9067 9.2355 15.4065 8.193 14.5702L8.205 14.5792L7.755 14.2042L7.26 14.5192C5.7945 15.5182 4.6575 16.9013 3.98175 18.525L3.96 18.5842C2.496 16.8067 1.608 14.5065 1.608 11.9992C1.608 6.2595 6.26025 1.60575 11.9992 1.60425L12 1.605ZM5.205 19.845C5.688 18.3713 6.546 17.1308 7.66725 16.1955L7.68 16.185C8.8905 17.016 10.3875 17.5118 12 17.5118C13.6125 17.5118 15.1095 17.016 16.3463 16.1677L16.32 16.185C17.4473 17.136 18.3038 18.3743 18.7785 19.788L18.795 19.845C16.989 21.4275 14.607 22.3927 12 22.3927C9.393 22.3927 7.011 21.4275 5.193 19.8345L5.205 19.845Z" fill="#636363"/>
</svg>
