<svg width="111" height="96" viewBox="0 0 111 96" fill="none" xmlns="http://www.w3.org/2000/svg">
<path d="M55.4991 27.2208C41.2307 27.2208 29.6636 38.7879 29.6636 53.0563C29.6636 67.3247 41.2307 78.8918 55.4991 78.8918C69.7675 78.8918 81.3346 67.3247 81.3346 53.0563C81.3346 38.7879 69.7675 27.2208 55.4991 27.2208ZM55.4991 71.4113C45.3242 71.4113 37.0749 63.1619 37.0749 52.987C37.0749 42.8121 45.3242 34.5628 55.4991 34.5628C65.674 34.5628 73.9234 42.8121 73.9234 52.987C73.9234 53.0113 73.9234 53.0355 73.9234 53.0597V53.0563C73.9234 53.1186 73.9234 53.1913 73.9234 53.2641C73.9234 63.4009 65.7052 71.619 55.5684 71.619C55.5442 71.619 55.5199 71.619 55.4957 71.619H55.4991V71.4113ZM92.7632 42.3203C95.6307 42.3203 97.958 39.9931 97.958 37.1255C97.958 34.258 95.6307 31.9307 92.7632 31.9307C89.8957 31.9307 87.5684 34.258 87.5684 37.1255C87.5684 39.9931 89.8957 42.3203 92.7632 42.3203ZM90.1312 19.4632L73.5078 0H38.8758L20.8671 19.4632H0.0878906V96H110.91V19.8095L90.1312 19.4632ZM103.43 88.7273H7.49915V26.8052H24.1918L42.2004 7.34199H69.9061L86.5294 26.8052H103.291V88.658L103.43 88.7273Z" fill="#004A77"/>
</svg>
