<svg width="83" height="46" viewBox="0 0 83 46" fill="none" xmlns="http://www.w3.org/2000/svg">
<path d="M83 20.6198V25.3351H67.1959V1.60918H72.7602V20.6198H83ZM9.93063 25.3351C15.6315 25.3351 20.4229 21.563 21.7881 16.4585L35.6472 26.9443L49.4986 16.4634V25.3351H65.3025V20.6198H55.0629V1.60918H49.4986V10.4808L36.2139 20.5326L33.2438 18.2847L39.6014 13.4721L46.5258 8.23298L42.5743 5.23916L29.287 15.2933L26.3169 13.0455L39.6014 2.99381L35.6472 0L21.7881 10.4858C20.4229 5.38137 15.6315 1.60918 9.93063 1.60918H0V25.3351H9.93063ZM5.56425 20.6198V6.32443H9.93063C13.6221 6.32443 16.6155 9.5253 16.6155 13.4721C16.6155 17.4189 13.6221 20.6198 9.93063 20.6198H5.56425Z" fill="#0672CB"/>
<path d="M83 40.6412C83 39.2216 82.186 38.5929 80.5579 38.2761C78.9298 37.9617 77.9536 37.8021 77.9536 36.6994C77.9536 35.911 78.6053 35.4394 79.7438 35.4394C81.2096 35.4394 81.6965 36.0707 81.6965 36.859L81.8587 37.0162H82.5106L82.6729 36.859C82.6729 35.2823 81.3693 34.6511 79.7438 34.6511C77.9536 34.6511 76.9772 35.5966 76.9772 36.7019C76.9772 37.9617 77.9536 38.5929 79.5815 38.9072C81.2096 39.2241 82.0237 39.3813 82.0237 40.6412C82.0237 41.4296 81.5368 42.0608 79.9088 42.0608C78.443 42.0608 77.7938 41.2723 77.7938 40.3268L77.6315 40.1697H76.9798L76.8175 40.3268C76.8175 41.7464 77.9562 42.8492 79.9088 42.8492C82.0238 42.8492 83 41.9037 83 40.6412ZM76.001 39.067L76.1632 38.9098V38.4383C76.1632 36.2303 74.8623 34.6536 72.5825 34.6536C70.3053 34.6536 69.0018 36.2303 69.0018 38.4383V38.7527C69.0018 40.958 70.1404 42.8517 72.7448 42.8517C75.022 42.8517 75.8361 41.4321 76.001 40.4866L75.8387 40.3293H75.1868L75.0246 40.4866C74.7 41.4321 74.0483 42.0633 72.7474 42.0633C70.6298 42.0633 69.9807 40.1721 69.9807 39.2266L70.143 39.0695H76.001V39.067ZM75.0246 38.2786H70.143L69.9807 38.1213C69.9807 37.0187 70.6324 35.4419 72.5851 35.4419C74.5377 35.4419 75.1894 37.0187 75.1894 38.1213L75.0246 38.2786ZM67.8632 42.5348V34.968L67.701 34.8107H67.0491L66.8868 34.968V42.5348L67.0491 42.6919H67.701L67.8632 42.5348ZM67.8632 33.3911V32.4456L67.701 32.2884H67.0491L66.8868 32.4456V33.3911L67.0491 33.5484H67.701L67.8632 33.3911ZM61.6782 42.0608C60.0501 42.0608 59.0737 40.958 59.0737 38.7501C59.0737 36.5421 60.0501 35.4394 61.6782 35.4394C63.3035 35.4394 64.2825 36.5421 64.2825 38.7501C64.2825 40.958 63.3061 42.0608 61.6782 42.0608ZM64.2825 41.5867C64.2825 43.6351 63.7931 45.2118 61.8404 45.2118C60.3746 45.2118 59.8878 44.5806 59.7255 43.7922L59.5632 43.6351H58.9114L58.7491 43.7922C58.9114 45.052 59.8878 45.9977 61.8404 45.9977C63.9579 45.9977 65.2588 44.7377 65.2588 41.5843V34.963L65.0965 34.8057H64.6071L64.4448 34.963L64.2825 35.911H64.1202C63.7957 35.2798 62.9815 34.6486 61.5159 34.6486C59.2387 34.6486 58.0974 36.3825 58.0974 38.7476C58.0974 41.1127 59.2361 42.8467 61.5159 42.8467C62.9815 42.8467 63.7957 42.218 64.1202 41.5867H64.2825ZM53.7027 35.4394C55.3308 35.4394 56.4693 36.6994 56.4693 38.7501C56.4693 40.7984 55.3308 42.0608 53.7027 42.0608C52.0746 42.0608 50.9361 40.8009 50.9361 38.7501C50.9361 36.7019 52.0746 35.4394 53.7027 35.4394ZM53.7027 42.8492C55.8176 42.8492 57.4457 41.4296 57.4457 38.7501C57.4457 36.0707 55.8176 34.6511 53.7027 34.6511C51.5852 34.6511 49.9597 36.0707 49.9597 38.7501C49.9597 41.4296 51.5878 42.8492 53.7027 42.8492ZM48.8212 42.5348V31.8145L48.6587 31.6572H48.0071L47.8448 31.8145V42.5348L48.0071 42.6919H48.6587L48.8212 42.5348ZM42.9607 35.4394C44.5886 35.4394 45.7273 36.6994 45.7273 38.7501C45.7273 40.7984 44.5886 42.0608 42.9607 42.0608C41.3326 42.0608 40.1939 40.8009 40.1939 38.7501C40.1939 36.7019 41.3326 35.4394 42.9607 35.4394ZM42.9607 42.8492C45.0756 42.8492 46.7035 41.4296 46.7035 38.7501C46.7035 36.0707 45.0756 34.6511 42.9607 34.6511C40.8457 34.6511 39.2176 36.0707 39.2176 38.7501C39.2176 41.4296 40.8457 42.8492 42.9607 42.8492ZM38.2412 42.5348V37.8045C38.2412 35.7562 37.1027 34.6511 35.3123 34.6511C34.1737 34.6511 33.1948 35.1251 32.708 35.9135H32.5457L32.3834 34.9655L32.2212 34.8082H31.7316L31.5693 34.9655V42.5323L31.7316 42.6894H32.3834L32.5457 42.5323V38.2761C32.5457 36.5421 33.3597 35.4394 35.1501 35.4394C36.451 35.4394 37.265 36.2278 37.265 37.8045V42.5348L37.4273 42.6919H38.079L38.2412 42.5348ZM29.9387 42.5348V37.8045C29.9387 35.7562 28.8001 34.6511 27.0098 34.6511C25.8711 34.6511 24.8948 35.1251 24.4054 35.9135H24.2432V31.8145L24.0809 31.6572H23.429L23.2668 31.8145V42.5348L23.429 42.6919H24.0809L24.2432 42.5348V38.2786C24.2432 36.5447 25.0571 35.4419 26.8475 35.4419C28.1484 35.4419 28.9624 36.2303 28.9624 37.807V42.5373L29.1247 42.6944H29.7764L29.9387 42.5348ZM15.9432 38.7501C15.9432 36.5421 17.0817 35.4394 18.7098 35.4394C20.3379 35.4394 20.987 36.3851 21.1518 37.3306L21.3141 37.4877H21.966L22.1282 37.3306C21.966 35.7539 20.6624 34.6511 18.7098 34.6511C16.5948 34.6511 14.9668 35.9135 14.9668 38.7501C14.9668 41.5867 16.5948 42.8492 18.7098 42.8492C20.6624 42.8492 21.966 41.7464 22.1282 40.1697L21.966 40.0125H21.3141L21.1518 40.1697C20.9896 41.1152 20.3379 42.0608 18.7098 42.0608C17.0817 42.0608 15.9432 40.958 15.9432 38.7501ZM14.1528 39.067L14.3151 38.9098V38.4383C14.3151 36.2303 13.0116 34.6536 10.7344 34.6536C8.45714 34.6536 7.15366 36.2303 7.15366 38.4383V38.7527C7.15366 40.958 8.29227 42.8517 10.8966 42.8517C13.1739 42.8517 13.9879 41.4321 14.1528 40.4866L13.9905 40.3293H13.3413L13.179 40.4866C12.8544 41.4321 12.2027 42.0633 10.9018 42.0633C8.78687 42.0633 8.13513 40.1721 8.13513 39.2266L8.29742 39.0695H14.1528V39.067ZM13.1764 38.2786H8.29227L8.12998 38.1213C8.12998 37.0187 8.78171 35.4419 10.7344 35.4419C12.687 35.4419 13.3387 37.0187 13.3387 38.1213L13.1764 38.2786ZM8.78944 32.2884V31.8145L8.62716 31.6572H0.162291L0 31.8145V32.2884L0.162291 32.4456H3.74299L3.90528 32.6029V42.5348L4.06757 42.6919H4.71931L4.8816 42.5348V32.6029L5.04388 32.4456H8.62459L8.78944 32.2884Z" fill="#0672CB"/>
</svg>
