<svg width="21" height="25" viewBox="0 0 21 25" fill="none" xmlns="http://www.w3.org/2000/svg">
<path d="M8.32759 0H2.10945V3.70312H0V5.375H2.10945V7.01562H0V8.6875H2.10945V16.3125H0V17.9844H2.10945V19.6406H0V21.2969H2.10945V25H21V0L8.32759 0ZM19.3471 23.3281H3.79385V21.2969H5.36807V19.6406H3.79385V17.9844H5.36807V16.3125H3.79385V8.6875H5.36807V7.01562H3.79385V5.375H5.36807V3.70312H3.79385V1.67188H19.3313V23.3438L19.3471 23.3281ZM7.47751 11.25H15.6477V5.79688H7.47751V11.25ZM9.14618 7.45312H13.9633V9.57812H9.14618V7.45312ZM7.47751 13.3125H15.6477V14.9688H7.47751V13.3125Z" fill="#0672CB"/>
</svg>
