<svg width="96" height="96" viewBox="0 0 96 96" fill="none" xmlns="http://www.w3.org/2000/svg">
<path d="M48 0C21.489 0 0 21.489 0 48C0 74.511 21.489 96 48 96C74.511 96 96 74.511 96 48C96 21.489 74.511 0 48 0ZM48 89.58C25.035 89.58 6.42 70.965 6.42 48C6.42 25.035 25.035 6.42 48 6.42C70.965 6.42 89.58 25.035 89.58 48C89.547 70.95 70.947 89.547 48 89.58ZM60 23.22C58.482 22.017 56.706 21.057 54.78 20.433L54.66 20.4C52.671 19.761 50.379 19.389 48.006 19.38H48C47.874 19.377 47.727 19.374 47.577 19.374C45.057 19.374 42.645 19.839 40.422 20.685L40.56 20.64C38.478 21.351 36.708 22.506 35.286 23.994L35.28 24C33.909 25.482 32.841 27.267 32.19 29.238L32.16 29.34C31.488 31.251 31.098 33.453 31.098 35.745C31.098 36.195 31.113 36.639 31.143 37.08L31.14 37.02H38.82C38.796 36.723 38.784 36.378 38.784 36.027C38.784 33.417 39.534 30.981 40.833 28.926L40.8 28.98C42.342 27.285 44.559 26.223 47.022 26.223C47.367 26.223 47.706 26.244 48.039 26.283L48 26.28C48.087 26.277 48.186 26.277 48.288 26.277C49.752 26.277 51.159 26.52 52.473 26.967L52.383 26.94C53.499 27.345 54.459 27.936 55.269 28.686L55.263 28.68C55.938 29.349 56.454 30.174 56.751 31.098L56.763 31.14C57.06 31.98 57.234 32.949 57.243 33.957C57.246 34.041 57.246 34.143 57.246 34.242C57.246 35.436 57.024 36.576 56.619 37.626L56.64 37.563C56.25 38.622 55.722 39.534 55.065 40.341L55.08 40.323C54.345 41.253 53.556 42.078 52.701 42.825L52.68 42.843L49.56 45.483C48.492 46.368 47.529 47.289 46.641 48.279L46.62 48.303C45.915 49.122 45.294 50.049 44.796 51.045L44.76 51.123C44.28 52.098 43.923 53.229 43.749 54.42L43.74 54.483C43.677 55.212 43.641 56.058 43.641 56.913C43.641 57.768 43.677 58.614 43.746 59.451L43.74 59.34H51.06C51.06 59.283 51.06 59.214 51.06 59.145C51.06 57.897 51.192 56.679 51.441 55.506L51.42 55.62C51.624 54.732 51.978 53.949 52.455 53.256L52.44 53.28C52.992 52.467 53.604 51.756 54.291 51.129L54.3 51.12C55.08 50.4 56.04 49.56 57.24 48.6C58.44 47.64 59.4 46.68 60.36 45.72C61.254 44.838 62.046 43.854 62.721 42.789L62.76 42.72C63.405 41.649 63.939 40.413 64.296 39.102L64.32 39C64.704 37.629 64.926 36.051 64.926 34.425C64.926 34.263 64.923 34.101 64.92 33.939V33.963C64.92 33.954 64.92 33.942 64.92 33.93C64.92 31.77 64.455 29.718 63.621 27.87L63.657 27.963C62.826 26.055 61.578 24.462 60.024 23.244L59.997 23.223L60 23.22ZM43.44 68.94H51.12V76.62H43.44V68.94Z" fill="#004A77"/>
</svg>
