<svg width="20" height="26" viewBox="0 0 20 26" fill="none" xmlns="http://www.w3.org/2000/svg">
<path d="M4.90291 11.3718H15.0971V12.9972H4.90291V11.3718ZM4.90291 15.0939H15.0971V16.833H4.90291V15.0939ZM4.90291 18.8647H15.0971V20.5876H4.90291V18.8647ZM16.9094 3.06623V4.87038H18.2848V24.3746H1.71521V4.87038H3.09061V3.06623H0V26H20V3.06623H16.9094ZM15.2751 2.09102H12.8155C12.4345 0.870378 11.318 0 10 0C8.68204 0 7.56553 0.870378 7.19013 2.06989L7.18447 2.09102H4.72492V7.45469H15.2751V2.09102ZM13.5437 5.71556H6.45631V3.83015H8.77023V2.95246C8.77023 2.27062 9.3212 1.71719 10 1.71719C10.6788 1.71719 11.2298 2.27062 11.2298 2.95246V3.83015H13.5437V5.71556Z" fill="#0672CB"/>
</svg>
