<svg width="26" height="26" viewBox="0 0 26 26" fill="none" xmlns="http://www.w3.org/2000/svg">
<path d="M12.6587 0H3.62375L0 3.62375V12.6587L13.3413 26L26 13.3413L12.6587 0ZM1.73875 11.9437V4.33875L4.33875 1.73875H11.9437L23.5462 13.3413L13.3413 23.5462L1.73875 11.9437ZM4.27375 4.27375C4.01781 4.52969 3.85938 4.88313 3.85938 5.27394C3.85938 6.05475 4.49231 6.68769 5.27312 6.68769C6.05394 6.68769 6.68687 6.05475 6.68687 5.27394C6.68687 4.88313 6.52844 4.52969 6.2725 4.27375C6.01656 4.01781 5.66312 3.86019 5.27312 3.86019C4.88312 3.86019 4.52969 4.01863 4.27375 4.27375Z" fill="#0672CB"/>
</svg>
