<svg id="dds__icon--headphones" viewbox="0 0 32 32" xmlns="http://www.w3.org/2000/svg"><title>dds__icon--headphones</title><path d="M32 15.020c0-8.56-6.86-15.020-16-15.020s-16 6.6-16 15.020v10.98h2v0.72c-0 0.006-0 0.013-0 0.020 0 2.905 2.355 5.26 5.26 5.26 0 0 0 0 0 0h2.22v-13.86h-2.22c-2.46 0.001-4.527 1.685-5.112 3.963l-0.008 0.037v-7.12c0-7.34 6-12.88 14-12.88s13.78 5.54 13.78 12.88v7.2c-0.585-2.314-2.649-4-5.107-4-0.005 0-0.009 0-0.014 0h-2.299v13.78h2.24c2.905 0 5.26-2.355 5.26-5.26v0-0.74h2v-10.98zM4.12 23.4c0-0 0-0 0-0 0-1.723 1.397-3.12 3.12-3.12 0.007 0 0.014 0 0.021 0h-0.001l0.1 9.58h-0.1c-0.006 0-0.013 0-0.020 0-1.723 0-3.12-1.397-3.12-3.12 0-0 0-0 0-0v0-3.34zM27.88 26.74c0 0 0 0 0 0 0 1.723-1.397 3.12-3.12 3.12-0.007 0-0.014-0-0.021-0h0.001v-9.58c0.006-0 0.013-0 0.020-0 1.723 0 3.12 1.397 3.12 3.12 0 0 0 0 0 0v0z"/></svg>