<svg id="dds__icon--clipboard-lines" viewbox="0 0 32 32" xmlns="http://www.w3.org/2000/svg"><title>dds__icon--clipboard-lines</title><path d="M9.7 14h12.6v2h-12.6zM9.7 18.58h12.6v2.14h-12.6zM9.7 23.22h12.6v2.12h-12.6zM24.54 3.78v2.22h1.7v24h-20.48v-24h1.7v-2.22h-3.82v28.22h24.72v-28.22zM22.52 2.58h-3.040c-0.471-1.502-1.851-2.573-3.48-2.573s-3.009 1.071-3.473 2.547l-0.007 0.026h-3.040v6.6h13.040zM20.38 7.040h-8.76v-2.32h2.86v-1.080c0-0.839 0.681-1.52 1.52-1.52s1.52 0.681 1.52 1.52v0 1.080h2.86v2.32z"/></svg>